<svg xmlns="http://www.w3.org/2000/svg" xmlns:xlink="http://www.w3.org/1999/xlink" viewBox="0 0 427.55 683.08"><defs><style>.cls-1,.cls-10,.cls-11,.cls-12,.cls-13,.cls-14,.cls-15,.cls-16,.cls-17,.cls-18,.cls-19,.cls-2,.cls-3,.cls-4,.cls-5,.cls-6,.cls-7,.cls-8,.cls-9{stroke:#fff;}.cls-1,.cls-10,.cls-11,.cls-12,.cls-13,.cls-14,.cls-15,.cls-16,.cls-17,.cls-18,.cls-19,.cls-2,.cls-20,.cls-21,.cls-22,.cls-23,.cls-24,.cls-25,.cls-26,.cls-27,.cls-28,.cls-29,.cls-3,.cls-30,.cls-31,.cls-32,.cls-33,.cls-34,.cls-35,.cls-36,.cls-4,.cls-5,.cls-6,.cls-7,.cls-8,.cls-9{stroke-miterlimit:10;}.cls-1{fill:url(#linear-gradient);}.cls-2{fill:url(#linear-gradient-2);}.cls-3{fill:url(#linear-gradient-3);}.cls-4{fill:url(#linear-gradient-4);}.cls-5{fill:url(#linear-gradient-5);}.cls-6{fill:url(#linear-gradient-6);}.cls-7{fill:url(#linear-gradient-7);}.cls-8{fill:url(#linear-gradient-8);}.cls-9{fill:url(#linear-gradient-9);}.cls-10{fill:url(#linear-gradient-10);}.cls-11{fill:url(#linear-gradient-11);}.cls-12{fill:url(#linear-gradient-12);}.cls-13{fill:url(#linear-gradient-13);}.cls-14{fill:url(#linear-gradient-14);}.cls-15{fill:url(#linear-gradient-15);}.cls-16{fill:url(#linear-gradient-16);}.cls-17{fill:url(#linear-gradient-17);}.cls-18{fill:url(#linear-gradient-18);}.cls-19{fill:url(#linear-gradient-19);}.cls-20,.cls-21,.cls-22,.cls-23,.cls-24,.cls-25,.cls-26,.cls-27,.cls-28,.cls-29,.cls-30,.cls-31,.cls-32,.cls-33,.cls-34,.cls-35,.cls-36{stroke:#2b2b2a;}.cls-20{fill:url(#linear-gradient-20);}.cls-21{fill:url(#linear-gradient-21);}.cls-22{fill:url(#linear-gradient-22);}.cls-23{fill:url(#linear-gradient-23);}.cls-24{fill:url(#linear-gradient-24);}.cls-25{fill:url(#linear-gradient-25);}.cls-26{fill:url(#linear-gradient-26);}.cls-27{fill:url(#linear-gradient-27);}.cls-28{fill:url(#linear-gradient-28);}.cls-29{fill:url(#linear-gradient-29);}.cls-30{fill:url(#linear-gradient-30);}.cls-31{fill:url(#linear-gradient-31);}.cls-32{fill:url(#linear-gradient-32);}.cls-33{fill:url(#linear-gradient-33);}.cls-34{fill:url(#linear-gradient-34);}.cls-35{fill:url(#linear-gradient-35);}.cls-36{fill:url(#linear-gradient-36);}</style><linearGradient id="linear-gradient" x1="111.03" y1="429.85" x2="260.44" y2="559.56" gradientUnits="userSpaceOnUse"><stop offset="0.31" stop-color="#1d1d1b"/><stop offset="0.36" stop-color="#123824"/><stop offset="0.41" stop-color="#0a4c2a"/><stop offset="0.47" stop-color="#045b2f"/><stop offset="0.53" stop-color="#016332"/><stop offset="0.64" stop-color="#063"/></linearGradient><linearGradient id="linear-gradient-2" x1="130.78" y1="518.52" x2="225.75" y2="600.97" gradientUnits="userSpaceOnUse"><stop offset="0" stop-color="#1d1d1b"/><stop offset="0.14" stop-color="#123824"/><stop offset="0.29" stop-color="#0a4c2a"/><stop offset="0.47" stop-color="#045b2f"/><stop offset="0.67" stop-color="#016332"/><stop offset="1" stop-color="#063"/></linearGradient><linearGradient id="linear-gradient-3" x1="148.49" y1="443.78" x2="292.58" y2="568.87" gradientUnits="userSpaceOnUse"><stop offset="0.14" stop-color="#1d1d1b"/><stop offset="0.2" stop-color="#123824"/><stop offset="0.27" stop-color="#0a4c2a"/><stop offset="0.35" stop-color="#045b2f"/><stop offset="0.44" stop-color="#016332"/><stop offset="0.59" stop-color="#063"/></linearGradient><linearGradient id="linear-gradient-4" x1="150.19" y1="497.81" x2="247.91" y2="582.64" xlink:href="#linear-gradient-2"/><linearGradient id="linear-gradient-5" x1="125.44" y1="320.12" x2="128.99" y2="323.2" xlink:href="#linear-gradient-2"/><linearGradient id="linear-gradient-6" x1="160.31" y1="372.67" x2="379.88" y2="563.29" gradientUnits="userSpaceOnUse"><stop offset="0.26" stop-color="#1d1d1b"/><stop offset="0.3" stop-color="#123824"/><stop offset="0.35" stop-color="#0a4c2a"/><stop offset="0.4" stop-color="#045b2f"/><stop offset="0.46" stop-color="#016332"/><stop offset="0.56" stop-color="#063"/></linearGradient><linearGradient id="linear-gradient-7" x1="173.19" y1="215.04" x2="185.55" y2="225.76" xlink:href="#linear-gradient-2"/><linearGradient id="linear-gradient-8" x1="240.42" y1="675.21" x2="269.78" y2="700.69" xlink:href="#linear-gradient-2"/><linearGradient id="linear-gradient-9" x1="207.01" y1="376.8" x2="412.24" y2="554.97" gradientUnits="userSpaceOnUse"><stop offset="0.16" stop-color="#1d1d1b"/><stop offset="0.21" stop-color="#123824"/><stop offset="0.26" stop-color="#0a4c2a"/><stop offset="0.32" stop-color="#045b2f"/><stop offset="0.39" stop-color="#016332"/><stop offset="0.5" stop-color="#063"/></linearGradient><linearGradient id="linear-gradient-10" x1="218.97" y1="214.39" x2="221.84" y2="216.89" xlink:href="#linear-gradient-2"/><linearGradient id="linear-gradient-11" x1="286.55" y1="682.17" x2="304.74" y2="697.96" xlink:href="#linear-gradient-2"/><linearGradient id="linear-gradient-12" x1="183.71" y1="205.61" x2="198.62" y2="218.56" gradientUnits="userSpaceOnUse"><stop offset="1" stop-color="#1d1d1b"/><stop offset="1" stop-color="#123824"/><stop offset="1" stop-color="#0a4c2a"/><stop offset="1" stop-color="#045b2f"/><stop offset="1" stop-color="#016332"/><stop offset="1" stop-color="#063"/></linearGradient><linearGradient id="linear-gradient-13" x1="231.54" y1="344.44" x2="468.99" y2="550.58" gradientUnits="userSpaceOnUse"><stop offset="0.17" stop-color="#1d1d1b"/><stop offset="0.21" stop-color="#123824"/><stop offset="0.25" stop-color="#0a4c2a"/><stop offset="0.29" stop-color="#045b2f"/><stop offset="0.35" stop-color="#016332"/><stop offset="0.43" stop-color="#063"/></linearGradient><linearGradient id="linear-gradient-14" x1="268.2" y1="69.35" x2="442.68" y2="220.83" gradientUnits="userSpaceOnUse"><stop offset="0.72" stop-color="#1d1d1b"/><stop offset="0.74" stop-color="#1c1f1c"/><stop offset="0.75" stop-color="#1a261e"/><stop offset="0.76" stop-color="#153122"/><stop offset="0.76" stop-color="#0e4227"/><stop offset="0.77" stop-color="#06582e"/><stop offset="0.77" stop-color="#063"/></linearGradient><linearGradient id="linear-gradient-15" x1="344" y1="680.23" x2="363.7" y2="697.33" xlink:href="#linear-gradient-2"/><linearGradient id="linear-gradient-16" x1="283.61" y1="361.3" x2="491.13" y2="541.44" gradientUnits="userSpaceOnUse"><stop offset="0.04" stop-color="#1d1d1b"/><stop offset="0.07" stop-color="#123824"/><stop offset="0.11" stop-color="#0a4c2a"/><stop offset="0.15" stop-color="#045b2f"/><stop offset="0.21" stop-color="#016332"/><stop offset="0.29" stop-color="#063"/></linearGradient><linearGradient id="linear-gradient-17" x1="373.97" y1="131.83" x2="466.08" y2="211.79" gradientUnits="userSpaceOnUse"><stop offset="0.93" stop-color="#1d1d1b"/><stop offset="0.94" stop-color="#123824"/><stop offset="0.95" stop-color="#0a4c2a"/><stop offset="0.96" stop-color="#045b2f"/><stop offset="0.98" stop-color="#016332"/><stop offset="1" stop-color="#063"/></linearGradient><linearGradient id="linear-gradient-18" x1="382.22" y1="674.64" x2="397.41" y2="687.83" xlink:href="#linear-gradient-2"/><linearGradient id="linear-gradient-19" x1="277.12" y1="-0.64" x2="288.02" y2="8.82" xlink:href="#linear-gradient-12"/><linearGradient id="linear-gradient-20" x1="95.83" y1="332.41" x2="153.09" y2="339.82" gradientUnits="userSpaceOnUse"><stop offset="0" stop-color="#063"/><stop offset="1" stop-color="#1d1d1b"/></linearGradient><linearGradient id="linear-gradient-21" x1="196.95" y1="424.83" x2="202.6" y2="425.56" xlink:href="#linear-gradient-20"/><linearGradient id="linear-gradient-22" x1="219.33" y1="435.67" x2="241.42" y2="438.53" xlink:href="#linear-gradient-20"/><linearGradient id="linear-gradient-23" x1="291.14" y1="452.21" x2="293.99" y2="452.58" xlink:href="#linear-gradient-20"/><linearGradient id="linear-gradient-24" x1="314.24" y1="458.15" x2="332.13" y2="460.46" xlink:href="#linear-gradient-20"/><linearGradient id="linear-gradient-25" x1="380.97" y1="476.15" x2="383.79" y2="476.52" xlink:href="#linear-gradient-20"/><linearGradient id="linear-gradient-26" x1="392.95" y1="524.74" x2="450.57" y2="532.19" xlink:href="#linear-gradient-20"/><linearGradient id="linear-gradient-27" x1="10.11" y1="609.78" x2="391.03" y2="659.05" xlink:href="#linear-gradient-20"/><linearGradient id="linear-gradient-28" x1="59.48" y1="228.08" x2="440.4" y2="277.35" gradientUnits="userSpaceOnUse"><stop offset="0" stop-color="#063"/><stop offset="1" stop-color="#1d1d1b"/></linearGradient><linearGradient id="linear-gradient-29" x1="289.08" y1="420.73" x2="294.44" y2="421.42" gradientUnits="userSpaceOnUse"><stop offset="0.34" stop-color="#1d1d1b"/><stop offset="1" stop-color="#063"/></linearGradient><linearGradient id="linear-gradient-30" x1="312.37" y1="426.64" x2="330.86" y2="429.03" xlink:href="#linear-gradient-29"/><linearGradient id="linear-gradient-31" x1="217.2" y1="402.8" x2="239.72" y2="405.72" xlink:href="#linear-gradient-29"/><linearGradient id="linear-gradient-32" x1="69.94" y1="317.63" x2="138.51" y2="326.5" gradientUnits="userSpaceOnUse"><stop offset="1" stop-color="#1d1d1b"/><stop offset="1" stop-color="#063"/></linearGradient><linearGradient id="linear-gradient-33" x1="195.74" y1="393.28" x2="208.01" y2="394.87" xlink:href="#linear-gradient-29"/><linearGradient id="linear-gradient-34" x1="63.49" y1="250.82" x2="401.7" y2="294.57" xlink:href="#linear-gradient-29"/><linearGradient id="linear-gradient-35" x1="378.86" y1="443.04" x2="384.28" y2="443.75" xlink:href="#linear-gradient-29"/><linearGradient id="linear-gradient-36" x1="32.1" y1="528.26" x2="404.22" y2="576.38" xlink:href="#linear-gradient-29"/></defs><g id="line1"><path class="cls-1" d="M199.15,382.38V630.16a153.89,153.89,0,0,1-46.91-63.88V382.38Z" transform="translate(-83.86 -52.72)"/><path class="cls-2" d="M203.09,734.93H152.24V566.28a153.89,153.89,0,0,0,46.91,63.88V382.38h2.64l.12,33.45.08,20.24.72,196.86.2,51.89.07,20.3.1,27.52Z" transform="translate(-83.86 -52.72)"/><path class="cls-3" d="M225,646.76a145,145,0,0,1-22.25-13.83L202,436.07l-.08-20.24-.12-33.45h1.3l11.07-8.07,9.76-7.12,0,11.73.17,46,.08,19.61Z" transform="translate(-83.86 -52.72)"/><path class="cls-4" d="M225.23,719.73l-22.15,12.91-3.93,2.29V382.38l14-8.59,10.76-6.6-9.76,7.12-11.07,8.07h-1.3l.12,33.45.08,20.24.72,196.86A145,145,0,0,0,225,646.76l.17,47.37h0l.08,19.65Z" transform="translate(-83.86 -52.72)"/><polygon class="cls-5" points="140.06 314.47 130.31 321.59 119.23 329.66 115.3 329.66 129.31 321.07 140.06 314.47"/></g><g id="line2"><path class="cls-6" d="M293.06,663.3a177.52,177.52,0,0,1-50.19-9V277.57h49.68l.16,121.82.06,43.59,0,18.86Z" transform="translate(-83.86 -52.72)"/><rect class="cls-7" x="159.01" y="223.74" width="49.68" height="1.11"/><path class="cls-8" d="M293.16,734.93H242.87V654.25a177.52,177.52,0,0,0,50.19,9l.07,45.73,0,18.09Z" transform="translate(-83.86 -52.72)"/><path class="cls-9" d="M318.54,662.91a228.72,228.72,0,0,1-25.38.4V277.57L318,261.44l.19,143.46.06,43.54,0,18.9Z" transform="translate(-83.86 -52.72)"/><polygon class="cls-10" points="234.15 208.72 209.31 224.85 209.31 223.74 234.15 208.72"/><path class="cls-11" d="M318.62,719.9l-13.16,7.77-12.3,7.26V663.31a228.72,228.72,0,0,0,25.38-.4l.07,47.19Z" transform="translate(-83.86 -52.72)"/><polygon class="cls-12" points="234.15 208.72 209.31 224.85 159.01 224.85 160.76 223.74 184.47 208.72 234.15 208.72"/></g><g id="line3"><path class="cls-13" d="M382.82,649.84a206.77,206.77,0,0,1-41.06,10.43q-4.27.68-8.58,1.21V227.37a147.5,147.5,0,0,1,30.15,9.17,131.62,131.62,0,0,1,19.17,10.15l.14,174,0,45.74,0,19.93Z" transform="translate(-83.86 -52.72)"/><path class="cls-14" d="M363.33,236.54a147.5,147.5,0,0,0-30.15-9.17V66.84h49.17l.09,110.3,0,48.48,0,21.07A131.62,131.62,0,0,0,363.33,236.54Z" transform="translate(-83.86 -52.72)"/><path class="cls-15" d="M382.89,734.93H333.18V661.48q4.31-.54,8.58-1.21a206.77,206.77,0,0,0,41.06-10.43l0,51.82,0,16Z" transform="translate(-83.86 -52.72)"/><path class="cls-16" d="M407.94,637.27a132.11,132.11,0,0,1-25.05,12.54V246.94a133.83,133.83,0,0,1,24.76,20.57l.13,162.09,0,48.75v21.18Z" transform="translate(-83.86 -52.72)"/><path class="cls-17" d="M382.89,246.94V66.84l24.59-13.28.11,134.49,0,56.16,0,23.3A133.83,133.83,0,0,0,382.89,246.94Z" transform="translate(-83.86 -52.72)"/><path class="cls-18" d="M408,721.64l-25.12,13.29V649.81a132.11,132.11,0,0,0,25.05-12.54l.05,56v28.33Z" transform="translate(-83.86 -52.72)"/><polygon class="cls-19" points="274.45 0.84 323.62 0.84 299.04 14.12 249.33 14.12 274.45 0.84"/></g><g id="S"><path class="cls-20" d="M152.24,382.73v22.72c-20.11-17.21-35.57-38.79-41.7-64.42a108.82,108.82,0,0,1-2-39,135.09,135.09,0,0,1,8.48-32.58,125.18,125.18,0,0,0-2.82,14.94,109.05,109.05,0,0,0,2,39C121.75,346.56,134.91,366.42,152.24,382.73Z" transform="translate(-83.86 -52.72)"/><path class="cls-21" d="M201.91,415.83l.08,20.24c-1-.41-1.9-.83-2.84-1.26V414.52Z" transform="translate(-83.86 -52.72)"/><path class="cls-22" d="M242.87,430.88v19.25q-9.41-2.58-18.66-5.64l-.08-19.61C230.32,427.08,236.57,429.06,242.87,430.88Z" transform="translate(-83.86 -52.72)"/><path class="cls-23" d="M292.77,443l.39.09v18.85l-.36-.08Z" transform="translate(-83.86 -52.72)"/><path class="cls-24" d="M333.18,451.83v19q-7.43-1.81-14.9-3.48l0-18.9Q325.74,450.07,333.18,451.83Z" transform="translate(-83.86 -52.72)"/><path class="cls-25" d="M382.67,466.38l.22.08v19.93l-.2-.08Z" transform="translate(-83.86 -52.72)"/><path class="cls-26" d="M448.55,580.24a65.65,65.65,0,0,0,1-16.52c-1.5-22.61-14.93-43.25-32.56-57.49q-4.44-3.59-9.18-6.7V478.35a121.27,121.27,0,0,1,14.85,10.24c17.63,14.24,31.06,34.88,32.56,57.49A70.7,70.7,0,0,1,448.55,580.24Z" transform="translate(-83.86 -52.72)"/><path class="cls-27" d="M506.13,598a159,159,0,0,1-41.79,73.05c-44,43.25-109.06,60.16-170.6,56.08-51.37-3.41-102.55-20.82-142.06-53.83S85.36,591,84.36,539.52l7-.48c5.87,45.14,30.94,87.33,66,116.65,39.51,33,90.68,50.42,142,53.83C361,713.6,426,696.69,470,653.44A157.66,157.66,0,0,0,506.13,598Z" transform="translate(-83.86 -52.72)"/><path class="cls-28" d="M495.77,329.45,439.06,332c-2.95-24.26-14.61-46.63-31.41-64.45a133.83,133.83,0,0,0-24.76-20.57l-.39-.25a131.62,131.62,0,0,0-19.17-10.15,147.5,147.5,0,0,0-30.15-9.17c-31.19-6-64.33-2.56-94.58,7.73-18.29,6.21-36.1,15.07-49.67,28.83a77.13,77.13,0,0,0-14.44,20.35c2.35-14.21,9.91-27.64,20.11-38,13.56-13.76,31.37-22.61,49.67-28.83,28.43-9.67,59.4-13.3,88.91-8.71A149.33,149.33,0,0,1,369,218.9a130.33,130.33,0,0,1,13.49,6.72l.41.23a133.71,133.71,0,0,1,24.74,18.36c19.84,18.62,33.81,43.21,37.09,70.11l51-2.26A121.57,121.57,0,0,1,495.77,329.45Z" transform="translate(-83.86 -52.72)"/><path class="cls-29" d="M292.71,399.39l.45.1v43.58l-.39-.09Z" transform="translate(-83.86 -52.72)"/><path class="cls-30" d="M333.18,408.1v43.73q-7.44-1.77-14.93-3.39l-.06-43.54Q325.69,406.49,333.18,408.1Z" transform="translate(-83.86 -52.72)"/><path class="cls-31" d="M241.28,385.5l1.59.53v44.85c-6.3-1.82-12.55-3.8-18.74-6l-.17-46C229.63,381.38,235.44,383.53,241.28,385.5Z" transform="translate(-83.86 -52.72)"/><polygon class="cls-32" points="140.06 314.47 129.31 321.07 115.3 329.66 68.39 329.66 90.52 314.47 140.06 314.47"/><path class="cls-33" d="M203.09,382.38h-1.3l.12,33.45-2.76-1.31V382.38l14-8.59,1,.52Z" transform="translate(-83.86 -52.72)"/><path class="cls-34" d="M495.68,312.06l-51,2.26c-3.28-26.9-17.25-51.49-37.09-70.11a133.71,133.71,0,0,0-24.74-18.36l-.41-.23A130.33,130.33,0,0,0,369,218.9a149.33,149.33,0,0,0-35.81-10.15c-29.51-4.59-60.48-1-88.91,8.71-18.3,6.22-36.11,15.07-49.67,28.83-10.2,10.35-17.76,23.78-20.11,38a60.42,60.42,0,0,0-6.2,31.85c1.66,17.7,12.17,33.73,25.84,45.1a97.42,97.42,0,0,0,8,6H174.37l-22.13,15.19v.35c-17.33-16.31-30.49-36.17-36-59.34a109.05,109.05,0,0,1-2-39,125.18,125.18,0,0,1,2.82-14.94,178.27,178.27,0,0,1,30.26-49.78c28.57-33.58,72.81-49.86,115.65-55a270.3,270.3,0,0,1,37.52-1.84,282.35,282.35,0,0,1,32.69,2.51,243.89,243.89,0,0,1,49.26,11.86l.45.17a208.27,208.27,0,0,1,24.7,10.74,184.67,184.67,0,0,1,27.59,17.44C468.58,231.07,492.52,270.46,495.68,312.06Z" transform="translate(-83.86 -52.72)"/><path class="cls-35" d="M382.67,466.38l0-45.74.25.08v45.74Z" transform="translate(-83.86 -52.72)"/><path class="cls-36" d="M506.13,598A157.66,157.66,0,0,1,470,653.44c-.64.63-1.29,1.26-1.95,1.88s-1.21,1.15-1.83,1.72l-1.31,1.2c-.52.48-1.05,1-1.58,1.41-1,.87-2,1.73-3,2.57l-2,1.65-2,1.63-2.19,1.71-1.42,1.08c-.74.56-1.48,1.12-2.23,1.66L449,671.07l-.9.64-2,1.37-.5.34-1.42,1c-.42.29-.84.57-1.27.84-.62.41-1.24.82-1.87,1.21l-.22.15-.57.35c-.41.27-.82.53-1.24.78l-1.62,1-1.63,1-1.63,1-1.65,1-2,1.1c-.58.33-1.16.64-1.75,1l-.28.15-.57.31c-.65.35-1.31.69-2,1l-.25.13c-.53.28-1.06.55-1.6.81l-1.3.65-2.05,1c-1,.5-2.1,1-3.15,1.48l-1.58.72-1.59.71c-1.06.47-2.13.93-3.2,1.38s-2.15.89-3.23,1.32l-2,.8-.53.21c-1.19.46-2.39.91-3.59,1.34-.86.32-1.73.63-2.59.93l-1.69.59-.57.19-2.19.74-.76.24-2,.63-1.72.53-1.08.33-3.18.93-3.2.88h0l-.63.17q-2.53.67-5.08,1.29l-.56.13-2.88.67c-1,.23-2,.46-3.07.67l-2.27.47-3.34.65-3.31.61c-1.26.22-2.53.42-3.8.62l-.24,0-.21,0-2.5.38-2.39.34c-1.29.18-2.58.35-3.87.5-.87.11-1.75.21-2.62.3l-1.28.14-2.19.22c-1.05.1-2.1.2-3.14.28l-2.1.17-.35,0-.29,0h0c-1.18.09-2.35.17-3.53.24l-.4,0-1.62.09-1.62.08c-.85,0-1.69.08-2.54.1l-1.91.07-2.84.07-1.82,0h-1.82c-1.11,0-2.22,0-3.33,0H314c-.67,0-1.35,0-2,0-1,0-1.9,0-2.85-.07l-2.32-.08-3.46-.15h0l-3.92-.23-2.41-.17-2.2-.17-1.63-.14h0l-2.38-.22-2.39-.24-2.09-.23L283.6,708l-1.59-.2c-.53-.06-1.05-.14-1.58-.21l-3.17-.44q-3.17-.46-6.32-1l-2.72-.47-.43-.08-3.14-.59L262,704.5l-1-.2c-.89-.18-1.79-.37-2.68-.57-1-.22-2.08-.46-3.12-.7l-3.11-.74-2.85-.71-1.92-.5-.73-.19-2-.55-1.76-.49q-9-2.54-17.74-5.71l-1.2-.44-.11,0q-2.2-.81-4.4-1.67-2.89-1.12-5.76-2.34l-1-.41-1-.42-1.21-.52-1.35-.6-.79-.35-2.25-1-.49-.23-2.72-1.28c-1.26-.6-2.51-1.22-3.76-1.85l-.13-.06-.59-.3a2.39,2.39,0,0,1-.22-.12c-.62-.3-1.23-.62-1.84-.94-.93-.48-1.85-1-2.77-1.46l-2.51-1.37a1.71,1.71,0,0,1-.23-.13c-.82-.45-1.64-.91-2.45-1.38-2.82-1.6-5.61-3.28-8.36-5l-.27-.17-2.31-1.49-2.56-1.69c-1-.7-2.09-1.41-3.12-2.14-.69-.48-1.38-1-2.06-1.45l-2.53-1.84-1.71-1.27-1.31-1c-.66-.5-1.31-1-2-1.52-.81-.63-1.62-1.28-2.42-1.93l0,0c-.81-.65-1.61-1.31-2.41-2-.43-.36-.87-.72-1.29-1.09l-1.28-1.1-.69-.6-1.29-1.14-.56-.5q-3-2.65-5.81-5.43l-.25-.23-2.8-2.8-.22-.22c-.86-.88-1.72-1.78-2.57-2.68s-1.4-1.49-2.09-2.25l-1.12-1.23c-.86-1-1.72-1.93-2.55-2.9l-1.22-1.42-1.19-1.42c-.71-.85-1.41-1.7-2.1-2.56-.27-.34-.54-.67-.8-1-.74-.94-1.48-1.88-2.2-2.83s-1.49-2-2.22-3c-.22-.29-.44-.59-.64-.88-.64-.87-1.26-1.75-1.88-2.63a.83.83,0,0,1-.08-.12c-.78-1.12-1.55-2.24-2.31-3.38l0,0c-.37-.55-.74-1.11-1.1-1.68s-.73-1.13-1.09-1.69l-.15-.23q-1-1.56-2-3.15c-.11-.16-.21-.33-.31-.5-.62-1-1.23-2.06-1.83-3.1l-1-1.67-.13-.24L112,600.8c-.24-.41-.47-.83-.69-1.25-.35-.63-.68-1.26-1-1.89l-1-1.9c-.33-.63-.65-1.27-1-1.91s-.59-1.19-.88-1.79c-.22-.44-.43-.89-.64-1.34l-.73-1.53c-.47-1-.94-2.06-1.4-3.09q-.87-2-1.68-3.93c-.34-.82-.68-1.63-1-2.46-.45-1.12-.88-2.24-1.31-3.37,0,0,0-.09,0-.13-.4-1.08-.79-2.17-1.17-3.26,0-.1-.07-.19-.1-.28l-.6-1.76c-.2-.59-.4-1.17-.59-1.76-.26-.81-.52-1.61-.77-2.42-.2-.63-.39-1.27-.58-1.91a.17.17,0,0,0,0-.05c-.18-.64-.37-1.28-.55-1.93s-.37-1.3-.54-2-.35-1.31-.52-2c-.23-.89-.45-1.79-.67-2.69-.1-.39-.19-.78-.28-1.17s-.21-.89-.31-1.34c0-.06,0-.12,0-.18-.13-.58-.26-1.16-.38-1.74,0-.22-.09-.43-.13-.65-.17-.77-.32-1.55-.47-2.32l0-.16c0-.07,0-.15,0-.22,0-.24-.09-.47-.13-.7s-.09-.47-.13-.71c-.12-.66-.24-1.33-.35-2s-.2-1.2-.29-1.8-.22-1.4-.32-2.11-.2-1.4-.29-2.11L144,535.36a142.21,142.21,0,0,0,8.21,30.92,153.89,153.89,0,0,0,46.91,63.88q1.75,1.41,3.56,2.77A145,145,0,0,0,225,646.76q4.6,2.31,9.38,4.28,4.23,1.74,8.53,3.21a177.52,177.52,0,0,0,50.19,9h.1a228.72,228.72,0,0,0,25.38-.4q7.35-.49,14.64-1.43,4.31-.54,8.58-1.21a206.77,206.77,0,0,0,41.06-10.43l.07,0a132.11,132.11,0,0,0,25.05-12.54q3.78-2.43,7.37-5.2c16.6-12.79,29.44-31.49,33.24-51.83a70.7,70.7,0,0,0,6.68-34.16c-1.5-22.61-14.93-43.25-32.56-57.49a121.27,121.27,0,0,0-14.85-10.24l0-48.75c36.5,14.92,70,37.84,88.58,72C512.3,531,514.47,565.62,506.13,598Z" transform="translate(-83.86 -52.72)"/></g></svg>